<?xml version="1.0" standalone="no"?>
<!DOCTYPE svg PUBLIC "-//W3C//DTD SVG 20010904//EN"
 "http://www.w3.org/TR/2001/REC-SVG-20010904/DTD/svg10.dtd">
<svg version="1.0" xmlns="http://www.w3.org/2000/svg"
 width="5906.000000pt" height="2362.000000pt" viewBox="0 0 5906.000000 2362.000000"
 preserveAspectRatio="xMidYMid meet">
<metadata>
Created by potrace 1.16, written by Peter Selinger 2001-2019
</metadata>
<g transform="translate(0.000000,2362.000000) scale(0.100000,-0.100000)"
fill="#000000" stroke="none">
<path d="M13040 16881 c-60 -32 -135 -121 -178 -212 -85 -179 -116 -314 -172
-740 -58 -443 -155 -961 -211 -1134 -37 -113 -72 -179 -128 -247 -86 -102
-155 -154 -581 -435 -717 -474 -1435 -1048 -1936 -1548 -303 -302 -496 -529
-676 -795 -272 -401 -411 -739 -425 -1036 -12 -243 51 -417 209 -575 220 -219
564 -350 1153 -439 104 -15 221 -31 260 -35 141 -14 173 -45 140 -133 -23 -60
-296 -581 -427 -814 -175 -313 -249 -495 -250 -617 0 -78 11 -105 52 -126 77
-40 220 10 430 150 183 121 323 227 1747 1309 288 218 329 232 858 286 931 94
1840 232 3150 475 480 89 502 93 965 150 574 72 863 127 1085 205 162 58 259
121 253 164 -11 75 -241 62 -661 -39 -358 -85 -1634 -344 -2217 -449 -934
-169 -2167 -344 -2626 -372 -242 -15 -216 32 196 356 544 426 1005 797 1415
1140 83 69 279 231 435 360 1156 954 2196 1923 2921 2720 391 430 669 811 829
1135 143 290 190 523 145 714 -46 192 -202 334 -447 405 -158 46 -284 60 -523
60 -785 -1 -1661 -250 -2900 -825 -613 -284 -1531 -784 -1700 -926 -154 -130
-204 -154 -237 -115 -39 43 -30 158 27 378 88 338 189 776 217 939 25 147 31
209 31 340 1 182 -15 264 -63 316 -24 25 -35 29 -77 29 -27 -1 -63 -9 -83 -19z
m5178 -327 c489 -88 424 -521 -192 -1289 -247 -307 -611 -699 -1042 -1120
-805 -786 -1399 -1328 -2279 -2075 -165 -140 -403 -342 -530 -450 -611 -521
-1823 -1518 -2036 -1675 -86 -63 -165 -102 -258 -126 -64 -17 -121 -21 -356
-26 -319 -7 -488 1 -510 24 -8 8 -15 27 -15 42 0 14 50 130 111 256 616 1276
1052 2358 1453 3603 70 217 146 438 170 492 118 267 247 382 756 672 1294 738
2611 1308 3588 1553 499 125 882 165 1140 119z m-5963 -2484 c8 -25 -12 -108
-94 -376 -315 -1040 -727 -2129 -1211 -3199 -250 -553 -276 -603 -334 -643
-48 -33 -96 -35 -313 -13 -858 88 -1288 292 -1397 661 -19 64 -22 217 -6 300
26 137 114 346 225 537 364 621 991 1246 2027 2020 260 195 667 485 887 632
168 113 202 126 216 81z m-538 -4434 c4 -4 -22 -36 -58 -70 -131 -122 -1105
-881 -1225 -955 -59 -36 -94 -40 -94 -12 0 25 104 234 240 481 234 424 306
522 414 556 47 15 708 15 723 0z"/>
<path d="M33681 16630 c-143 -93 -396 -381 -755 -860 -501 -668 -1067 -1485
-1798 -2593 -1535 -2327 -2076 -3187 -2700 -4289 -95 -169 -191 -329 -213
-355 l-39 -47 -12 30 c-64 155 -74 1489 -19 2429 64 1086 210 2264 405 3260
87 447 123 756 102 893 -12 84 -23 102 -62 102 -64 0 -146 -113 -281 -385 -76
-152 -95 -202 -125 -320 -35 -136 -36 -148 -45 -405 -7 -245 -11 -286 -54
-545 -126 -769 -204 -1525 -257 -2470 -18 -315 -18 -1757 0 -2025 18 -276 50
-619 68 -725 28 -171 78 -303 130 -344 33 -26 99 -28 134 -4 117 78 194 197
531 821 1312 2428 2128 3732 3393 5417 174 232 437 575 932 1217 195 251 390
507 436 570 272 374 411 668 314 668 -12 0 -51 -18 -85 -40z"/>
<path d="M37901 15560 c-80 -37 -137 -88 -284 -257 -511 -587 -945 -1195
-1379 -1933 -63 -107 -133 -229 -156 -270 -23 -41 -69 -106 -103 -145 -112
-128 -138 -175 -118 -217 9 -22 -2 -49 -101 -248 -116 -232 -422 -935 -542
-1245 -98 -254 -286 -816 -367 -1100 -124 -432 -155 -637 -149 -979 4 -200 7
-229 30 -303 98 -322 379 -373 738 -134 392 260 1014 976 1715 1976 158 224
630 932 792 1186 l71 112 23 -49 c33 -69 113 -147 173 -167 27 -9 78 -17 113
-17 70 0 106 14 206 82 69 47 114 65 128 51 6 -6 14 -48 19 -95 18 -174 88
-238 262 -238 260 0 747 197 1533 620 l190 103 155 -2 c105 -1 172 3 208 12
28 8 52 13 52 11 0 -2 -38 -61 -84 -131 -158 -240 -191 -326 -191 -500 0 -119
1 -122 30 -164 17 -24 52 -57 79 -74 44 -27 58 -30 152 -33 119 -5 193 9 384
70 405 131 1073 487 1584 844 158 110 171 115 249 93 21 -6 37 -16 37 -25 0
-20 -32 -81 -87 -168 -26 -39 -62 -105 -82 -146 -33 -69 -36 -82 -36 -166 0
-81 3 -95 26 -130 16 -23 48 -51 80 -69 49 -27 64 -30 170 -33 261 -9 602 99
1087 344 112 56 202 99 200 95 -2 -3 -11 -27 -22 -53 -16 -42 -22 -47 -42 -42
-19 5 -24 1 -29 -19 -4 -14 -4 -34 -1 -45 4 -11 -5 -59 -19 -107 -19 -65 -25
-110 -25 -179 0 -120 19 -176 81 -238 103 -103 277 -115 593 -39 460 111 961
334 1576 700 l145 87 -3 -83 c-5 -114 15 -172 82 -239 96 -96 228 -120 356
-66 59 25 134 72 211 131 l26 20 -5 -74 c-6 -102 11 -158 64 -212 70 -70 180
-89 328 -58 264 56 772 439 1439 1083 109 106 203 192 208 192 12 0 5 -15
-104 -219 -229 -427 -581 -1165 -635 -1331 -18 -56 -26 -105 -29 -196 -5 -107
-3 -126 15 -168 41 -92 133 -95 185 -4 14 23 57 121 96 215 250 610 604 1346
919 1913 335 604 399 700 742 1105 221 261 242 293 263 406 10 54 9 62 -10 87
-38 50 -88 27 -221 -102 -169 -163 -294 -317 -614 -762 -210 -291 -314 -408
-773 -873 -661 -668 -1088 -1029 -1380 -1168 -83 -39 -167 -53 -203 -34 -55
29 -27 153 69 301 93 143 122 206 127 272 3 45 0 64 -17 91 -27 44 -26 62 4
131 82 185 -28 286 -309 286 -149 0 -241 -21 -371 -84 -157 -76 -294 -199
-375 -336 l-39 -65 -218 -127 c-788 -457 -1387 -698 -1737 -698 -152 0 -212
33 -210 115 1 52 74 211 113 249 14 13 76 51 138 85 188 101 295 175 412 286
161 153 228 300 190 416 -39 116 -204 160 -363 98 -113 -45 -277 -179 -401
-329 -55 -65 -74 -80 -215 -160 -534 -303 -994 -480 -1247 -480 -70 0 -76 2
-105 31 -28 28 -30 34 -25 80 11 89 42 140 206 338 88 105 114 158 115 233 1
53 -2 60 -39 98 -22 23 -59 53 -83 67 l-43 25 46 49 c51 55 79 111 70 140 -16
49 -138 72 -242 45 -150 -38 -260 -124 -289 -224 -15 -52 -15 -59 0 -110 16
-49 16 -55 2 -78 -9 -13 -80 -66 -159 -118 -672 -443 -1384 -748 -1717 -734
l-75 3 -3 43 c-6 80 50 175 198 337 155 170 203 246 220 351 22 136 -53 196
-263 211 l-88 6 34 36 c64 66 87 109 87 163 0 42 -5 54 -30 80 -29 29 -34 30
-103 26 -57 -3 -88 -11 -149 -40 -107 -51 -218 -128 -310 -216 -97 -93 -131
-148 -132 -212 l-1 -47 -205 -111 c-658 -357 -1101 -542 -1298 -542 -57 0 -66
3 -94 30 -29 29 -30 33 -23 88 12 98 35 147 189 396 43 72 50 144 16 173 -26
23 -25 44 5 101 30 55 35 155 10 202 -38 74 -144 110 -322 110 -149 0 -210
-14 -342 -76 -154 -73 -294 -184 -376 -299 -44 -61 -105 -179 -105 -202 0 -13
-194 -315 -443 -688 -923 -1383 -1729 -2366 -2200 -2683 -181 -123 -330 -163
-413 -112 -144 90 -117 512 73 1143 81 270 252 733 543 1472 115 292 178 433
334 750 333 676 389 772 581 995 554 641 1190 1558 1409 2029 112 242 138 345
100 399 -20 28 -72 29 -133 2z m1021 -3011 c20 -11 19 -11 -8 -41 -39 -41
-264 -232 -361 -306 -88 -67 -202 -142 -215 -142 -19 0 -6 62 27 127 76 152
287 317 460 359 65 16 72 16 97 3z m8917 2 l24 -6 -29 -34 c-79 -94 -535 -451
-576 -451 -19 0 -6 62 27 127 76 152 287 317 460 359 57 14 62 14 94 5z"/>
<path d="M25699 15453 c-85 -42 -172 -126 -445 -428 -534 -593 -965 -1162
-1415 -1870 -80 -126 -139 -206 -196 -267 -46 -48 -83 -92 -83 -98 0 -6 5 -20
11 -31 9 -17 0 -37 -50 -122 -33 -56 -65 -114 -72 -129 -9 -21 -69 -59 -264
-167 -827 -460 -1355 -670 -1509 -600 -92 42 -35 261 128 497 45 65 51 79 54
136 4 55 1 66 -21 91 -21 25 -33 29 -90 33 -36 2 -81 -1 -101 -8 -19 -6 -111
-61 -203 -121 -182 -120 -275 -168 -333 -176 -79 -11 -65 41 39 145 61 60 81
88 86 115 11 58 -3 105 -44 149 -32 35 -45 41 -89 46 -42 4 -58 0 -96 -22 -56
-32 -118 -103 -165 -184 -36 -64 -36 -64 -191 -149 -654 -359 -1140 -563
-1338 -563 -57 0 -66 3 -94 30 -29 29 -30 33 -23 88 12 98 35 147 189 396 43
72 50 144 16 173 -26 23 -25 44 5 101 30 55 35 155 10 202 -38 74 -144 110
-322 110 -149 0 -210 -14 -342 -76 -211 -100 -366 -247 -453 -430 -32 -66 -33
-74 -33 -194 0 -113 2 -130 25 -175 35 -71 114 -148 174 -168 27 -9 78 -17
113 -17 70 0 106 14 206 82 69 47 114 65 128 51 6 -6 14 -48 19 -95 18 -174
88 -238 262 -238 219 0 547 119 1117 405 124 62 277 140 339 173 l112 60 0
-59 c0 -121 58 -196 166 -214 53 -8 102 5 240 66 122 53 176 62 194 30 5 -11
17 -68 25 -128 21 -150 39 -198 95 -253 35 -36 58 -50 99 -60 136 -32 374 27
751 185 150 63 600 289 810 405 91 51 170 94 177 97 7 3 -40 -94 -104 -214
-217 -411 -313 -614 -478 -1013 -207 -499 -395 -1062 -461 -1380 -56 -271 -69
-588 -29 -734 50 -183 150 -274 311 -284 250 -16 510 139 982 586 453 428
1046 1130 1682 1992 181 244 614 848 739 1030 82 119 100 179 63 199 -51 27
-78 -1 -318 -339 -652 -919 -1155 -1565 -1673 -2150 -199 -223 -668 -694 -806
-809 -277 -229 -479 -340 -620 -341 -123 0 -167 62 -173 246 -10 289 121 752
418 1474 251 611 809 1749 1011 2063 40 61 101 156 135 209 40 61 109 145 186
225 424 443 839 936 1139 1353 133 184 261 380 439 667 109 176 168 373 126
416 -30 30 -103 22 -187 -20z m-6557 -2904 c20 -11 19 -11 -8 -41 -39 -41
-264 -232 -361 -306 -88 -67 -202 -142 -215 -142 -19 0 -6 62 27 127 76 152
287 317 460 359 65 16 72 16 97 3z"/>
<path d="M35695 14600 c-46 -10 -75 -29 -138 -89 -79 -75 -132 -150 -279 -391
-262 -430 -553 -959 -817 -1487 -45 -90 -87 -163 -94 -163 -8 0 -56 -21 -108
-46 -302 -148 -990 -403 -1208 -449 -144 -30 -284 -15 -310 33 -33 61 -1 144
132 355 92 145 107 178 107 244 0 169 -153 205 -292 70 -83 -80 -218 -308
-268 -450 -27 -77 -38 -246 -20 -301 16 -49 54 -92 104 -118 51 -27 215 -37
309 -19 303 58 895 261 1357 464 69 31 126 54 128 52 2 -2 -8 -25 -22 -52 -50
-101 -250 -553 -302 -683 -29 -74 -74 -202 -99 -285 -45 -144 -47 -154 -43
-250 6 -142 40 -197 124 -197 83 0 127 73 155 256 47 314 144 572 426 1136
312 625 744 1347 1192 1995 91 130 100 149 107 224 5 43 2 65 -10 89 -24 46
-81 73 -131 62z"/>
<path d="M33184 13464 c-44 -30 -57 -44 -84 -96 -42 -79 -33 -170 19 -198 26
-14 91 -12 118 3 29 16 122 124 134 154 5 13 9 44 9 67 0 33 -6 49 -26 70 -38
37 -115 37 -170 0z"/>
<path d="M39177 9156 c-72 -26 -107 -76 -107 -151 0 -95 39 -128 202 -173 59
-16 118 -36 132 -46 51 -33 41 -112 -18 -144 -41 -22 -140 -21 -184 2 -35 18
-72 69 -72 99 0 14 -9 17 -46 17 l-46 0 7 -32 c18 -83 71 -145 144 -167 48
-14 154 -14 203 -1 44 13 93 52 113 91 20 37 19 124 -1 158 -26 44 -77 71
-191 102 -59 16 -119 37 -133 47 -37 28 -38 66 -2 101 64 64 199 46 231 -30
15 -36 19 -39 59 -39 41 0 42 1 36 28 -16 66 -54 111 -116 137 -46 19 -159 19
-211 1z"/>
<path d="M39775 9154 c-58 -20 -106 -64 -140 -125 -25 -47 -30 -67 -33 -149
-3 -80 0 -104 18 -154 42 -111 125 -168 253 -174 72 -4 83 -2 143 28 105 51
154 141 154 280 0 137 -50 228 -152 279 -52 26 -72 31 -132 30 -39 0 -89 -7
-111 -15z m210 -89 c23 -13 51 -42 65 -67 22 -37 25 -55 25 -138 0 -85 -3
-100 -27 -140 -71 -122 -241 -127 -323 -11 -26 38 -30 53 -33 125 -5 108 10
162 58 207 65 62 155 72 235 24z"/>
<path d="M45330 9161 c-76 -23 -136 -78 -172 -156 -33 -73 -33 -218 1 -293 75
-165 307 -215 484 -103 l47 31 0 115 0 115 -130 0 -130 0 0 -35 0 -35 85 0 85
0 0 -60 0 -60 -47 -24 c-138 -69 -280 -20 -319 109 -47 158 26 309 160 329 85
13 165 -25 193 -92 10 -23 19 -32 29 -28 9 3 21 6 27 6 34 1 39 17 19 61 -40
90 -114 130 -236 128 -39 0 -82 -4 -96 -8z"/>
<path d="M40270 8860 l0 -300 45 0 45 0 0 135 0 135 140 0 140 0 0 35 0 35
-140 0 -140 0 0 95 0 95 160 0 160 0 0 35 0 35 -205 0 -205 0 0 -300z"/>
<path d="M40730 9125 l0 -35 100 0 100 0 0 -265 0 -265 45 0 45 0 0 265 0 265
95 0 95 0 0 35 0 35 -240 0 -240 0 0 -35z"/>
<path d="M41240 9150 c0 -5 34 -138 75 -295 41 -156 75 -287 75 -290 0 -4 21
-5 47 -3 l48 3 62 225 c34 124 65 236 69 250 5 19 21 -29 65 -190 33 -118 64
-232 69 -252 10 -36 13 -38 54 -38 l42 0 78 287 c43 158 80 293 83 300 4 10
-7 13 -41 13 -39 0 -46 -3 -51 -22 -3 -13 -30 -122 -59 -243 l-53 -220 -12 55
c-6 30 -35 139 -63 243 l-51 187 -53 0 -53 0 -15 -52 c-8 -29 -38 -136 -66
-237 -27 -102 -51 -186 -53 -187 -1 -1 -27 105 -56 237 l-54 239 -44 0 c-24 0
-43 -4 -43 -10z"/>
<path d="M42110 8893 c-57 -148 -109 -283 -117 -300 l-13 -33 49 0 49 0 33 95
33 95 117 0 117 0 37 -95 37 -95 50 0 c27 0 48 4 46 9 -1 5 -57 140 -123 300
l-120 291 -46 0 -46 0 -103 -267z m193 57 c19 -52 39 -103 42 -112 7 -16 -1
-18 -83 -18 l-91 0 24 63 c14 34 33 88 42 119 10 31 21 54 24 50 3 -4 22 -50
42 -102z"/>
<path d="M42600 8860 l0 -300 45 0 45 0 0 135 0 135 55 0 c102 0 122 -16 226
-182 l54 -88 53 0 c29 0 51 3 49 8 -47 84 -121 196 -152 229 l-41 42 26 6 c41
11 89 45 105 75 23 45 19 131 -8 171 -41 62 -69 69 -274 69 l-183 0 0 -300z
m357 204 c20 -15 29 -31 31 -58 7 -81 -41 -106 -200 -106 l-98 0 0 96 0 96
119 -3 c102 -3 124 -7 148 -25z"/>
<path d="M43200 8860 l0 -300 225 0 225 0 0 35 0 35 -180 0 -180 0 0 105 0
105 165 0 165 0 0 35 0 35 -165 0 -165 0 0 90 0 90 175 0 175 0 0 35 0 35
-220 0 -220 0 0 -300z"/>
<path d="M43990 8860 l0 -300 225 0 225 0 0 35 0 35 -180 0 -180 0 0 105 0
105 165 0 165 0 0 35 0 35 -165 0 -165 0 0 90 0 90 175 0 175 0 0 35 0 35
-220 0 -220 0 0 -300z"/>
<path d="M44550 8860 l0 -300 40 0 40 0 2 227 3 227 150 -227 149 -227 48 0
48 0 0 300 0 300 -45 0 -45 0 0 -227 0 -228 -150 228 -149 227 -46 0 -45 0 0
-300z"/>
<path d="M45810 8860 l0 -300 45 0 45 0 0 300 0 300 -45 0 -45 0 0 -300z"/>
<path d="M46030 8860 l0 -300 40 0 40 0 2 227 3 227 150 -227 149 -227 48 0
48 0 0 300 0 300 -45 0 -45 0 0 -227 0 -228 -150 228 -149 227 -46 0 -45 0 0
-300z"/>
<path d="M46630 8860 l0 -300 225 0 225 0 0 35 0 35 -180 0 -180 0 0 105 0
105 165 0 165 0 0 35 0 35 -165 0 -165 0 0 90 0 90 175 0 175 0 0 35 0 35
-220 0 -220 0 0 -300z"/>
<path d="M47190 8860 l0 -300 225 0 225 0 0 35 0 35 -180 0 -180 0 0 105 0
105 165 0 165 0 0 35 0 35 -165 0 -165 0 0 90 0 90 175 0 175 0 0 35 0 35
-220 0 -220 0 0 -300z"/>
<path d="M47740 8860 l0 -300 45 0 45 0 0 135 0 135 55 0 c102 0 122 -16 226
-182 l54 -88 53 0 c29 0 51 3 49 8 -47 84 -121 196 -152 229 l-41 42 26 6 c41
11 89 45 105 75 23 45 19 131 -8 171 -41 62 -69 69 -274 69 l-183 0 0 -300z
m357 204 c20 -15 29 -31 31 -58 7 -81 -41 -106 -200 -106 l-98 0 0 96 0 96
119 -3 c102 -3 124 -7 148 -25z"/>
</g>
</svg>
