<svg width="210" height="50" viewBox="0 0 210 50" fill="none" xmlns="http://www.w3.org/2000/svg">
<rect width="210" height="50" rx="5" fill="url(#paint0_linear_61_2)"/>
<path d="M13.2148 17.21H16.9316L21.4863 28.0488L22.5391 30.6699L23.3662 28.0488L25.042 24.0957L22.0234 17.21H25.5254L26.7607 20.4863L27.9102 17.21H31.4121L28.3936 24.0957L30.1016 28.1348L31.1328 30.6699L31.9277 28.0918L36.5039 17.21H40.2207L32.8086 34H29.4355L27.9424 30.6699L26.7285 27.4365L25.5146 30.6699L24 34H20.627L13.2148 17.21ZM45.1986 19.5947C44.8835 19.5947 44.5971 19.5518 44.3393 19.4658C44.0886 19.3727 43.8738 19.251 43.6947 19.1006C43.5157 18.943 43.376 18.764 43.2758 18.5635C43.1827 18.3558 43.1361 18.1374 43.1361 17.9082C43.1361 17.6719 43.1827 17.4535 43.2758 17.2529C43.376 17.0452 43.5157 16.8662 43.6947 16.7158C43.8738 16.5654 44.0886 16.4473 44.3393 16.3613C44.5971 16.2682 44.8835 16.2217 45.1986 16.2217C45.5209 16.2217 45.8074 16.2682 46.058 16.3613C46.3158 16.4473 46.5342 16.5654 46.7133 16.7158C46.8923 16.8662 47.0284 17.0452 47.1215 17.2529C47.2217 17.4535 47.2719 17.6719 47.2719 17.9082C47.2719 18.1374 47.2217 18.3558 47.1215 18.5635C47.0284 18.764 46.8923 18.943 46.7133 19.1006C46.5342 19.251 46.3158 19.3727 46.058 19.4658C45.8074 19.5518 45.5209 19.5947 45.1986 19.5947ZM43.6088 21.3242H46.7885V34H43.6088V21.3242ZM58.0828 23.9668H51.5838V21.3242H63.9803L56.16 31.3574H63.5506V34H50.3162L58.0828 23.9668ZM67.1213 30.0039C67.1213 29.3952 67.2538 28.8402 67.5187 28.3389C67.7837 27.8376 68.1812 27.4079 68.7111 27.0498C69.2411 26.6846 69.8999 26.4053 70.6877 26.2119C71.4826 26.0114 72.4064 25.9111 73.4592 25.9111C74.2398 25.9111 75.0598 25.9684 75.9191 26.083C76.7857 26.1976 77.6773 26.373 78.5939 26.6094C78.5581 26.2083 78.4364 25.8395 78.2287 25.5029C78.021 25.1592 77.731 24.8656 77.3586 24.6221C76.9934 24.3714 76.5493 24.1781 76.0266 24.042C75.5109 23.9059 74.9237 23.8379 74.2648 23.8379C73.9068 23.8379 73.5129 23.8594 73.0832 23.9023C72.6535 23.9453 72.2095 24.0098 71.7512 24.0957C71.2928 24.1816 70.8381 24.2891 70.3869 24.418C69.9429 24.5469 69.5275 24.7008 69.1408 24.8799L68.174 22.2695C68.6538 22.0977 69.1659 21.9401 69.7102 21.7969C70.2616 21.6536 70.8238 21.5319 71.3967 21.4316C71.9696 21.3242 72.5425 21.2419 73.1154 21.1846C73.6883 21.1273 74.2434 21.0986 74.7805 21.0986C77.1509 21.0986 78.9126 21.7038 80.0656 22.9141C81.2186 24.1243 81.7951 25.9792 81.7951 28.4785V34H78.6154V32.8076C78.286 33.001 77.9243 33.1836 77.5305 33.3555C77.1437 33.5273 76.7212 33.6777 76.2629 33.8066C75.8046 33.9355 75.3104 34.0358 74.7805 34.1074C74.2577 34.1862 73.7027 34.2256 73.1154 34.2256C72.1271 34.2256 71.257 34.1182 70.5051 33.9033C69.7603 33.6885 69.1372 33.3913 68.6359 33.0117C68.1346 32.6322 67.7551 32.1882 67.4973 31.6797C67.2466 31.1641 67.1213 30.6055 67.1213 30.0039ZM70.4729 29.8965C70.4729 30.1042 70.5266 30.3047 70.634 30.498C70.7414 30.6842 70.9133 30.8525 71.1496 31.0029C71.3859 31.1462 71.6867 31.2643 72.052 31.3574C72.4243 31.4434 72.8719 31.4863 73.3947 31.4863C73.9533 31.4863 74.494 31.4362 75.0168 31.3359C75.5396 31.2357 76.0266 31.1032 76.4777 30.9385C76.9289 30.7738 77.3371 30.584 77.7023 30.3691C78.0676 30.1543 78.3719 29.9323 78.6154 29.7031V29.1445C78.1284 29.0085 77.6451 28.8939 77.1652 28.8008C76.6926 28.7077 76.2378 28.6361 75.801 28.5859C75.3713 28.5286 74.9631 28.4893 74.5764 28.4678C74.1968 28.4463 73.8638 28.4355 73.5773 28.4355C72.9829 28.4355 72.4888 28.4749 72.0949 28.5537C71.701 28.6325 71.3824 28.7399 71.1389 28.876C70.8954 29.0049 70.7235 29.1589 70.6232 29.3379C70.523 29.5169 70.4729 29.7031 70.4729 29.8965ZM87.1061 21.3242H90.2857V23.1504C90.9876 22.6276 91.7288 22.1764 92.5094 21.7969C93.29 21.4173 94.067 21.1273 94.8404 20.9268L95.775 23.8379C94.5504 23.9596 93.4726 24.2354 92.5416 24.665C91.6178 25.0876 90.8658 25.6855 90.2857 26.459V34H87.1061V21.3242ZM98.2715 27.7158C98.2715 26.7061 98.4613 25.7965 98.8408 24.9873C99.2204 24.1709 99.7432 23.4762 100.409 22.9033C101.082 22.3232 101.877 21.8792 102.794 21.5713C103.718 21.2562 104.717 21.0986 105.791 21.0986C106.249 21.0986 106.701 21.1273 107.145 21.1846C107.596 21.2419 108.025 21.3206 108.434 21.4209C108.849 21.5212 109.236 21.6429 109.594 21.7861C109.959 21.9222 110.281 22.0726 110.561 22.2373V16.1787H113.74V34H110.561V32.8076C110.281 33.001 109.952 33.1836 109.572 33.3555C109.193 33.5273 108.785 33.6777 108.348 33.8066C107.911 33.9355 107.456 34.0358 106.983 34.1074C106.518 34.1862 106.056 34.2256 105.598 34.2256C104.523 34.2256 103.535 34.068 102.633 33.7529C101.738 33.4378 100.968 32.9938 100.323 32.4209C99.6787 31.848 99.1738 31.1641 98.8086 30.3691C98.4505 29.5671 98.2715 28.6826 98.2715 27.7158ZM101.612 27.7158C101.612 28.2243 101.713 28.7041 101.913 29.1553C102.121 29.6064 102.414 30.0039 102.794 30.3477C103.181 30.6842 103.643 30.9528 104.18 31.1533C104.724 31.3467 105.333 31.4434 106.006 31.4434C106.436 31.4434 106.865 31.404 107.295 31.3252C107.725 31.2393 108.136 31.1211 108.53 30.9707C108.931 30.8203 109.304 30.6377 109.647 30.4229C109.998 30.208 110.303 29.9681 110.561 29.7031V25.3096C110.238 25.0518 109.898 24.8333 109.54 24.6543C109.182 24.4753 108.817 24.3285 108.444 24.2139C108.072 24.0993 107.696 24.0169 107.316 23.9668C106.937 23.9095 106.568 23.8809 106.21 23.8809C105.479 23.8809 104.828 23.9811 104.255 24.1816C103.689 24.375 103.209 24.6436 102.815 24.9873C102.429 25.3311 102.132 25.7357 101.924 26.2012C101.716 26.6667 101.612 27.1715 101.612 27.7158ZM119.137 17.21H134.155V20.1963H122.542V24.5898H132.404V27.3936H122.542V34H119.137V17.21ZM137.382 27.6621C137.382 26.7526 137.564 25.9004 137.929 25.1055C138.302 24.3105 138.828 23.6159 139.509 23.0215C140.196 22.4271 141.023 21.958 141.99 21.6143C142.964 21.2705 144.056 21.0986 145.266 21.0986C146.477 21.0986 147.565 21.2705 148.532 21.6143C149.506 21.958 150.333 22.4271 151.013 23.0215C151.701 23.6159 152.227 24.3105 152.593 25.1055C152.965 25.9004 153.151 26.7526 153.151 27.6621C153.151 28.5716 152.965 29.4238 152.593 30.2188C152.227 31.0137 151.701 31.7083 151.013 32.3027C150.333 32.8971 149.506 33.3662 148.532 33.71C147.565 34.0537 146.477 34.2256 145.266 34.2256C144.056 34.2256 142.964 34.0537 141.99 33.71C141.023 33.3662 140.196 32.8971 139.509 32.3027C138.828 31.7083 138.302 31.0137 137.929 30.2188C137.564 29.4238 137.382 28.5716 137.382 27.6621ZM140.722 27.6621C140.722 28.1706 140.823 28.654 141.023 29.1123C141.231 29.5635 141.528 29.9645 141.915 30.3154C142.309 30.6592 142.785 30.9349 143.344 31.1426C143.909 31.3431 144.55 31.4434 145.266 31.4434C145.983 31.4434 146.62 31.3431 147.179 31.1426C147.744 30.9349 148.221 30.6592 148.607 30.3154C149.001 29.9645 149.298 29.5635 149.499 29.1123C149.707 28.654 149.81 28.1706 149.81 27.6621C149.81 27.1536 149.707 26.6702 149.499 26.2119C149.298 25.7536 149.001 25.3525 148.607 25.0088C148.221 24.6579 147.744 24.3822 147.179 24.1816C146.62 23.974 145.983 23.8701 145.266 23.8701C144.55 23.8701 143.909 23.974 143.344 24.1816C142.785 24.3822 142.309 24.6579 141.915 25.0088C141.528 25.3525 141.231 25.7536 141.023 26.2119C140.823 26.6702 140.722 27.1536 140.722 27.6621ZM157.463 21.3242H160.643V23.1504C161.345 22.6276 162.086 22.1764 162.866 21.7969C163.647 21.4173 164.424 21.1273 165.197 20.9268L166.132 23.8379C164.907 23.9596 163.83 24.2354 162.899 24.665C161.975 25.0876 161.223 25.6855 160.643 26.459V34H157.463V21.3242ZM169.692 21.3242H172.872V22.3984C173.667 21.9115 174.44 21.5749 175.192 21.3887C175.951 21.1953 176.692 21.0986 177.416 21.0986C178.425 21.0986 179.353 21.2598 180.198 21.582C181.043 21.9043 181.766 22.3913 182.368 23.043C182.833 22.6849 183.292 22.3841 183.743 22.1406C184.194 21.89 184.645 21.6895 185.096 21.5391C185.547 21.3815 186.006 21.2705 186.471 21.2061C186.937 21.1344 187.417 21.0986 187.911 21.0986C188.949 21.0986 189.891 21.2419 190.736 21.5283C191.581 21.8076 192.301 22.2266 192.895 22.7852C193.497 23.3438 193.959 24.042 194.281 24.8799C194.61 25.7106 194.775 26.6738 194.775 27.7695V34H191.606V28.2852C191.606 27.5905 191.506 26.971 191.305 26.4268C191.112 25.8753 190.836 25.4134 190.478 25.041C190.127 24.6615 189.705 24.375 189.211 24.1816C188.724 23.9811 188.186 23.8809 187.599 23.8809C187.277 23.8809 186.948 23.9131 186.611 23.9775C186.274 24.0348 185.945 24.1279 185.623 24.2568C185.308 24.3857 185.01 24.5505 184.731 24.751C184.452 24.9443 184.208 25.1735 184.001 25.4385V34H180.832V28.2852C180.832 27.5905 180.731 26.971 180.531 26.4268C180.337 25.8753 180.062 25.4134 179.704 25.041C179.353 24.6615 178.927 24.375 178.425 24.1816C177.931 23.9811 177.387 23.8809 176.793 23.8809C176.427 23.8809 176.059 23.9202 175.686 23.999C175.321 24.0706 174.966 24.1745 174.623 24.3105C174.286 24.4466 173.967 24.6113 173.667 24.8047C173.373 24.998 173.108 25.2165 172.872 25.46V34H169.692V21.3242Z" fill="white"/>
<path d="M13.2148 17.21V16.81H12.601L12.8489 17.3715L13.2148 17.21ZM16.9316 17.21L17.3004 17.055L17.1974 16.81H16.9316V17.21ZM21.4863 28.0488L21.8576 27.8997L21.8551 27.8939L21.4863 28.0488ZM22.5391 30.6699L22.1679 30.819L22.5843 31.8558L22.9205 30.7903L22.5391 30.6699ZM23.3662 28.0488L22.9979 27.8927L22.9905 27.9103L22.9848 27.9285L23.3662 28.0488ZM25.042 24.0957L25.4103 24.2518L25.4776 24.093L25.4083 23.9351L25.042 24.0957ZM22.0234 17.21V16.81H21.4113L21.6571 17.3706L22.0234 17.21ZM25.5254 17.21L25.8997 17.0688L25.8021 16.81H25.5254V17.21ZM26.7607 20.4863L26.3865 20.6274L26.7743 21.656L27.1382 20.6187L26.7607 20.4863ZM27.9102 17.21V16.81H27.6266L27.5327 17.0775L27.9102 17.21ZM31.4121 17.21L31.7785 17.3706L32.0242 16.81H31.4121V17.21ZM28.3936 24.0957L28.0272 23.9351L27.9581 24.0929L28.0251 24.2515L28.3936 24.0957ZM30.1016 28.1348L30.4721 27.984L30.47 27.979L30.1016 28.1348ZM31.1328 30.6699L30.7623 30.8206L31.1847 31.8591L31.5151 30.7878L31.1328 30.6699ZM31.9277 28.0918L31.559 27.9367L31.5513 27.955L31.5455 27.9739L31.9277 28.0918ZM36.5039 17.21V16.81H36.2382L36.1352 17.0549L36.5039 17.21ZM40.2207 17.21L40.5866 17.3715L40.8345 16.81H40.2207V17.21ZM32.8086 34V34.4H33.0693L33.1745 34.1615L32.8086 34ZM29.4355 34L29.0706 34.1637L29.1765 34.4H29.4355V34ZM27.9424 30.6699L27.5679 30.8105L27.5723 30.8222L27.5774 30.8336L27.9424 30.6699ZM26.7285 27.4365L27.103 27.2959L26.7285 26.2984L26.354 27.2959L26.7285 27.4365ZM25.5146 30.6699L25.8788 30.8355L25.8844 30.8232L25.8891 30.8105L25.5146 30.6699ZM24 34V34.4H24.2575L24.3641 34.1656L24 34ZM20.627 34L20.261 34.1615L20.3663 34.4H20.627V34ZM13.2148 17.61H16.9316V16.81H13.2148V17.61ZM16.5629 17.3649L21.1176 28.2038L21.8551 27.8939L17.3004 17.055L16.5629 17.3649ZM21.1151 28.1979L22.1679 30.819L22.9102 30.5208L21.8575 27.8997L21.1151 28.1979ZM22.9205 30.7903L23.7477 28.1692L22.9848 27.9285L22.1576 30.5495L22.9205 30.7903ZM23.7345 28.2049L25.4103 24.2518L24.6737 23.9396L22.9979 27.8927L23.7345 28.2049ZM25.4083 23.9351L22.3898 17.0494L21.6571 17.3706L24.6756 24.2563L25.4083 23.9351ZM22.0234 17.61H25.5254V16.81H22.0234V17.61ZM25.1511 17.3511L26.3865 20.6274L27.135 20.3452L25.8997 17.0688L25.1511 17.3511ZM27.1382 20.6187L28.2876 17.3424L27.5327 17.0775L26.3833 20.3539L27.1382 20.6187ZM27.9102 17.61H31.4121V16.81H27.9102V17.61ZM31.0458 17.0494L28.0272 23.9351L28.7599 24.2563L31.7785 17.3706L31.0458 17.0494ZM28.0251 24.2515L29.7331 28.2906L30.47 27.979L28.762 23.9399L28.0251 24.2515ZM29.731 28.2855L30.7623 30.8206L31.5033 30.5192L30.4721 27.984L29.731 28.2855ZM31.5151 30.7878L32.31 28.2097L31.5455 27.9739L30.7506 30.5521L31.5151 30.7878ZM32.2965 28.2469L36.8726 17.365L36.1352 17.0549L31.559 27.9367L32.2965 28.2469ZM36.5039 17.61H40.2207V16.81H36.5039V17.61ZM39.8548 17.0484L32.4427 33.8385L33.1745 34.1615L40.5866 17.3715L39.8548 17.0484ZM32.8086 33.6H29.4355V34.4H32.8086V33.6ZM29.8005 33.8363L28.3074 30.5063L27.5774 30.8336L29.0706 34.1637L29.8005 33.8363ZM28.3169 30.5293L27.103 27.2959L26.354 27.5771L27.5679 30.8105L28.3169 30.5293ZM26.354 27.2959L25.1402 30.5293L25.8891 30.8105L27.103 27.5771L26.354 27.2959ZM25.1505 30.5043L23.6359 33.8344L24.3641 34.1656L25.8788 30.8355L25.1505 30.5043ZM24 33.6H20.627V34.4H24V33.6ZM20.9929 33.8385L13.5808 17.0484L12.8489 17.3715L20.261 34.1615L20.9929 33.8385ZM44.3393 19.4658L44.1999 19.841L44.2128 19.8453L44.3393 19.4658ZM43.6947 19.1006L43.4304 19.401L43.4375 19.4069L43.6947 19.1006ZM43.2758 18.5635L42.9108 18.7271L42.9142 18.7348L42.918 18.7424L43.2758 18.5635ZM43.2758 17.2529L42.9155 17.079L42.913 17.0845L43.2758 17.2529ZM44.3393 16.3613L44.469 16.7398L44.4751 16.7375L44.3393 16.3613ZM46.058 16.3613L45.9187 16.7365L45.9315 16.7408L46.058 16.3613ZM47.1215 17.2529L46.7565 17.4166L46.7599 17.4243L46.7637 17.4318L47.1215 17.2529ZM47.1215 18.5635L46.7612 18.3896L46.7587 18.395L47.1215 18.5635ZM46.7133 19.1006L46.9706 19.4069L46.9775 19.4009L46.7133 19.1006ZM46.058 19.4658L46.1878 19.8442L46.1939 19.842L46.058 19.4658ZM43.6088 21.3242V20.9242H43.2088V21.3242H43.6088ZM46.7885 21.3242H47.1885V20.9242H46.7885V21.3242ZM46.7885 34V34.4H47.1885V34H46.7885ZM43.6088 34H43.2088V34.4H43.6088V34ZM45.1986 19.1947C44.9198 19.1947 44.6769 19.1567 44.4657 19.0863L44.2128 19.8453C44.5173 19.9468 44.8473 19.9947 45.1986 19.9947V19.1947ZM44.4785 19.0909C44.2648 19.0115 44.0913 18.9113 43.952 18.7943L43.4375 19.4069C43.6562 19.5907 43.9124 19.734 44.2 19.8408L44.4785 19.0909ZM43.959 18.8003C43.8161 18.6746 43.7093 18.5361 43.6336 18.3846L42.918 18.7424C43.0428 18.9919 43.2152 19.2115 43.4305 19.4009L43.959 18.8003ZM43.6408 18.3999C43.5709 18.244 43.5361 18.0814 43.5361 17.9082H42.7361C42.7361 18.1934 42.7944 18.4676 42.9108 18.7271L43.6408 18.3999ZM43.5361 17.9082C43.5361 17.726 43.5717 17.5655 43.6386 17.4214L42.913 17.0845C42.7937 17.3414 42.7361 17.6178 42.7361 17.9082H43.5361ZM43.636 17.4268C43.7113 17.2708 43.8156 17.1367 43.952 17.0221L43.4375 16.4095C43.2158 16.5958 43.0407 16.8197 42.9156 17.079L43.636 17.4268ZM43.952 17.0221C44.0886 16.9073 44.2588 16.8118 44.469 16.7397L44.2095 15.9829C43.9184 16.0828 43.6589 16.2235 43.4375 16.4095L43.952 17.0221ZM44.4751 16.7375C44.6834 16.6623 44.923 16.6217 45.1986 16.6217V15.8217C44.844 15.8217 44.5108 15.8741 44.2034 15.9851L44.4751 16.7375ZM45.1986 16.6217C45.4828 16.6217 45.7208 16.6628 45.9187 16.7363L46.1973 15.9864C45.894 15.8737 45.559 15.8217 45.1986 15.8217V16.6217ZM45.9315 16.7408C46.1492 16.8133 46.3213 16.9089 46.456 17.0221L46.9706 16.4095C46.7472 16.2219 46.4825 16.0812 46.1845 15.9819L45.9315 16.7408ZM46.456 17.0221C46.5901 17.1348 46.6888 17.2655 46.7565 17.4166L47.4865 17.0893C47.368 16.825 47.1945 16.5977 46.9706 16.4095L46.456 17.0221ZM46.7637 17.4318C46.8347 17.5738 46.8719 17.7305 46.8719 17.9082H47.6719C47.6719 17.6132 47.6088 17.3331 47.4793 17.074L46.7637 17.4318ZM46.8719 17.9082C46.8719 18.0768 46.8355 18.2358 46.7613 18.3896L47.4817 18.7374C47.608 18.4758 47.6719 18.198 47.6719 17.9082H46.8719ZM46.7587 18.395C46.6907 18.5414 46.5898 18.6765 46.449 18.8003L46.9775 19.4009C47.1949 19.2096 47.366 18.9866 47.4843 18.7319L46.7587 18.395ZM46.456 18.7943C46.3186 18.9097 46.1432 19.0098 45.9222 19.0896L46.1939 19.842C46.4885 19.7357 46.7499 19.5923 46.9706 19.4069L46.456 18.7943ZM45.9283 19.0874C45.7273 19.1564 45.486 19.1947 45.1986 19.1947V19.9947C45.5558 19.9947 45.8874 19.9472 46.1877 19.8442L45.9283 19.0874ZM43.6088 21.7242H46.7885V20.9242H43.6088V21.7242ZM46.3885 21.3242V34H47.1885V21.3242H46.3885ZM46.7885 33.6H43.6088V34.4H46.7885V33.6ZM44.0088 34V21.3242H43.2088V34H44.0088ZM58.0828 23.9668L58.3991 24.2116L58.8983 23.5668H58.0828V23.9668ZM51.5838 23.9668H51.1838V24.3668H51.5838V23.9668ZM51.5838 21.3242V20.9242H51.1838V21.3242H51.5838ZM63.9803 21.3242L64.2958 21.5701L64.7992 20.9242H63.9803V21.3242ZM56.16 31.3574L55.8445 31.1115L55.341 31.7574H56.16V31.3574ZM63.5506 31.3574H63.9506V30.9574H63.5506V31.3574ZM63.5506 34V34.4H63.9506V34H63.5506ZM50.3162 34L49.9999 33.7552L49.5007 34.4H50.3162V34ZM58.0828 23.5668H51.5838V24.3668H58.0828V23.5668ZM51.9838 23.9668V21.3242H51.1838V23.9668H51.9838ZM51.5838 21.7242H63.9803V20.9242H51.5838V21.7242ZM63.6648 21.0783L55.8445 31.1115L56.4754 31.6033L64.2958 21.5701L63.6648 21.0783ZM56.16 31.7574H63.5506V30.9574H56.16V31.7574ZM63.1506 31.3574V34H63.9506V31.3574H63.1506ZM63.5506 33.6H50.3162V34.4H63.5506V33.6ZM50.6325 34.2448L58.3991 24.2116L57.7665 23.7219L49.9999 33.7552L50.6325 34.2448ZM67.5187 28.3389L67.1651 28.1519L67.5187 28.3389ZM68.7111 27.0498L68.9351 27.3813L68.9381 27.3792L68.7111 27.0498ZM70.6877 26.2119L70.783 26.6004L70.7855 26.5998L70.6877 26.2119ZM75.9191 26.083L75.8663 26.4795L75.8667 26.4796L75.9191 26.083ZM78.5939 26.6094L78.4941 26.9967L79.0427 27.1382L78.9924 26.5738L78.5939 26.6094ZM78.2287 25.5029L77.8863 25.7098L77.8883 25.713L78.2287 25.5029ZM77.3586 24.6221L77.1322 24.952L77.1397 24.9569L77.3586 24.6221ZM76.0266 24.042L75.9245 24.4288L75.9258 24.4291L76.0266 24.042ZM70.3869 24.418L70.277 24.0334L70.2754 24.0338L70.3869 24.418ZM69.1408 24.8799L68.7657 25.0188L68.9161 25.4247L69.3089 25.2429L69.1408 24.8799ZM68.174 22.2695L68.0391 21.893L67.6585 22.0293L67.7989 22.4085L68.174 22.2695ZM69.7102 21.7969L69.6096 21.4097L69.6084 21.41L69.7102 21.7969ZM71.3967 21.4316L71.4656 21.8257L71.4704 21.8248L71.3967 21.4316ZM80.0656 22.9141L79.776 23.19L80.0656 22.9141ZM81.7951 34V34.4H82.1951V34H81.7951ZM78.6154 34H78.2154V34.4H78.6154V34ZM78.6154 32.8076H79.0154V32.109L78.4129 32.4627L78.6154 32.8076ZM77.5305 33.3555L77.3705 32.9888L77.368 32.9899L77.5305 33.3555ZM74.7805 34.1074L74.7269 33.711L74.7209 33.7119L74.7805 34.1074ZM70.5051 33.9033L70.3942 34.2877L70.3952 34.2879L70.5051 33.9033ZM67.4973 31.6797L67.1375 31.8546L67.1405 31.8606L67.4973 31.6797ZM70.634 30.498L70.2843 30.6923L70.2875 30.6979L70.634 30.498ZM71.1496 31.0029L70.9348 31.3405L70.9423 31.345L71.1496 31.0029ZM72.052 31.3574L71.9531 31.7451L71.962 31.7472L72.052 31.3574ZM75.0168 31.3359L74.9415 30.9431L75.0168 31.3359ZM78.6154 29.7031L78.8896 29.9944L79.0154 29.876V29.7031H78.6154ZM78.6154 29.1445H79.0154V28.841L78.7231 28.7593L78.6154 29.1445ZM77.1652 28.8008L77.0879 29.1932L77.089 29.1935L77.1652 28.8008ZM75.801 28.5859L75.7481 28.9825L75.7554 28.9833L75.801 28.5859ZM74.5764 28.4678L74.5538 28.8671L74.5542 28.8672L74.5764 28.4678ZM72.0949 28.5537L72.1734 28.9459L72.0949 28.5537ZM71.1389 28.876L71.3261 29.2296L71.334 29.2252L71.1389 28.876ZM67.5213 30.0039C67.5213 29.4554 67.6401 28.9653 67.8724 28.5258L67.1651 28.1519C66.8675 28.715 66.7213 29.3349 66.7213 30.0039H67.5213ZM67.8724 28.5258C68.1029 28.0897 68.4525 27.7073 68.9351 27.3812L68.4872 26.7184C67.9099 27.1085 67.4645 27.5855 67.1651 28.1519L67.8724 28.5258ZM68.9381 27.3792C69.4193 27.0476 70.0306 26.7851 70.783 26.6004L70.5923 25.8234C69.7692 26.0255 69.0629 26.3216 68.4841 26.7204L68.9381 27.3792ZM70.7855 26.5998C71.5409 26.4092 72.4306 26.3111 73.4592 26.3111V25.5111C72.3823 25.5111 71.4243 25.6136 70.5899 25.8241L70.7855 26.5998ZM73.4592 26.3111C74.2203 26.3111 75.0225 26.367 75.8663 26.4795L75.972 25.6865C75.097 25.5698 74.2593 25.5111 73.4592 25.5111V26.3111ZM75.8667 26.4796C76.716 26.5919 77.5918 26.7641 78.4941 26.9967L78.6938 26.222C77.7628 25.982 76.8553 25.8033 75.9716 25.6865L75.8667 26.4796ZM78.9924 26.5738C78.9511 26.112 78.81 25.6833 78.5691 25.2929L77.8883 25.713C78.0628 25.9957 78.1651 26.3046 78.1955 26.6449L78.9924 26.5738ZM78.5711 25.2961C78.3291 24.8956 77.9946 24.56 77.5775 24.2873L77.1397 24.9569C77.4673 25.1711 77.7129 25.4227 77.8863 25.7098L78.5711 25.2961ZM77.5849 24.2923C77.1741 24.0103 76.6854 23.8002 76.1273 23.6549L75.9258 24.4291C76.4133 24.556 76.8126 24.7325 77.1323 24.9519L77.5849 24.2923ZM76.1286 23.6552C75.573 23.5086 74.9504 23.4379 74.2648 23.4379V24.2379C74.897 24.2379 75.4489 24.3033 75.9245 24.4288L76.1286 23.6552ZM74.2648 23.4379C73.8911 23.4379 73.4837 23.4603 73.0434 23.5043L73.123 24.3004C73.5421 24.2585 73.9224 24.2379 74.2648 24.2379V23.4379ZM73.0434 23.5043C72.6015 23.5485 72.1461 23.6147 71.6775 23.7026L71.8249 24.4889C72.2729 24.4049 72.7055 24.3421 73.123 24.3004L73.0434 23.5043ZM71.6775 23.7026C71.2069 23.7908 70.74 23.9011 70.277 24.0334L70.4968 24.8026C70.9361 24.6771 71.3788 24.5725 71.8249 24.4889L71.6775 23.7026ZM70.2754 24.0338C69.8136 24.1679 69.3792 24.3287 68.9728 24.5169L69.3089 25.2429C69.6758 25.073 70.0722 24.9259 70.4984 24.8021L70.2754 24.0338ZM69.5159 24.741L68.5491 22.1306L67.7989 22.4085L68.7657 25.0188L69.5159 24.741ZM68.3089 22.6461C68.7768 22.4785 69.2777 22.3243 69.812 22.1837L69.6084 21.41C69.054 21.5559 68.5309 21.7168 68.0391 21.893L68.3089 22.6461ZM69.8107 22.184C70.3515 22.0436 70.9031 21.9241 71.4656 21.8257L71.3277 21.0376C70.7444 21.1397 70.1717 21.2637 69.6096 21.4097L69.8107 22.184ZM71.4704 21.8248C72.0322 21.7194 72.5938 21.6387 73.1552 21.5826L73.0756 20.7866C72.4912 20.845 71.907 20.929 71.323 21.0385L71.4704 21.8248ZM73.1552 21.5826C73.7159 21.5265 74.2576 21.4986 74.7805 21.4986V20.6986C74.2292 20.6986 73.6608 20.728 73.0756 20.7866L73.1552 21.5826ZM74.7805 21.4986C77.088 21.4986 78.7255 22.0873 79.776 23.19L80.3552 22.6382C79.0997 21.3203 77.2138 20.6986 74.7805 20.6986V21.4986ZM79.776 23.19C80.8299 24.2962 81.3951 26.0319 81.3951 28.4785H82.1951C82.1951 25.9264 81.6073 23.9525 80.3552 22.6382L79.776 23.19ZM81.3951 28.4785V34H82.1951V28.4785H81.3951ZM81.7951 33.6H78.6154V34.4H81.7951V33.6ZM79.0154 34V32.8076H78.2154V34H79.0154ZM78.4129 32.4627C78.0988 32.647 77.7516 32.8226 77.3705 32.9889L77.6904 33.7221C78.0971 33.5446 78.4732 33.3549 78.8179 33.1526L78.4129 32.4627ZM77.368 32.9899C77.0009 33.1531 76.5967 33.2972 76.1546 33.4216L76.3712 34.1917C76.8458 34.0582 77.2866 33.9016 77.6929 33.721L77.368 32.9899ZM76.1546 33.4216C75.7162 33.5449 75.2406 33.6416 74.7269 33.711L74.834 34.5038C75.3803 34.43 75.8929 34.3262 76.3712 34.1917L76.1546 33.4216ZM74.7209 33.7119C74.2198 33.7874 73.6849 33.8256 73.1154 33.8256V34.6256C73.7205 34.6256 74.2955 34.585 74.8401 34.503L74.7209 33.7119ZM73.1154 33.8256C72.155 33.8256 71.3232 33.7211 70.615 33.5187L70.3952 34.2879C71.1908 34.5153 72.0993 34.6256 73.1154 34.6256V33.8256ZM70.6159 33.519C69.9077 33.3147 69.3316 33.0367 68.8774 32.6928L68.3945 33.3306C68.9429 33.7458 69.6129 34.0623 70.3942 34.2876L70.6159 33.519ZM68.8774 32.6928C68.4195 32.3461 68.0816 31.9477 67.854 31.4988L67.1405 31.8606C67.4285 32.4286 67.8498 32.9182 68.3945 33.3306L68.8774 32.6928ZM67.857 31.5048C67.6342 31.0464 67.5213 30.5479 67.5213 30.0039H66.7213C66.7213 30.663 66.8591 31.2818 67.1375 31.8546L67.857 31.5048ZM70.0729 29.8965C70.0729 30.1766 70.1461 30.4435 70.2843 30.6923L70.9836 30.3038C70.907 30.1659 70.8729 30.0318 70.8729 29.8965H70.0729ZM70.2875 30.6979C70.4354 30.9543 70.6601 31.1656 70.9349 31.3404L71.3644 30.6655C71.1665 30.5395 71.0474 30.4142 70.9805 30.2982L70.2875 30.6979ZM70.9423 31.345C71.2221 31.5146 71.5626 31.6455 71.9532 31.745L72.1508 30.9698C71.8109 30.8832 71.5498 30.7777 71.3569 30.6609L70.9423 31.345ZM71.962 31.7472C72.3724 31.8419 72.8519 31.8863 73.3947 31.8863V31.0863C72.892 31.0863 72.4763 31.0448 72.1419 30.9677L71.962 31.7472ZM73.3947 31.8863C73.9774 31.8863 74.5433 31.834 75.0921 31.7288L74.9415 30.9431C74.4447 31.0384 73.9293 31.0863 73.3947 31.0863V31.8863ZM75.0921 31.7288C75.6337 31.6249 76.1416 31.487 76.6149 31.3142L76.3406 30.5627C75.9115 30.7194 75.4454 30.8464 74.9415 30.9431L75.0921 31.7288ZM76.6149 31.3142C77.0859 31.1423 77.5165 30.9425 77.9052 30.7139L77.4995 30.0244C77.1577 30.2254 76.7719 30.4053 76.3406 30.5627L76.6149 31.3142ZM77.9052 30.7139C78.2896 30.4878 78.6195 30.2486 78.8896 29.9944L78.3413 29.4118C78.1244 29.616 77.8455 29.8208 77.4995 30.0244L77.9052 30.7139ZM79.0154 29.7031V29.1445H78.2154V29.7031H79.0154ZM78.7231 28.7593C78.2261 28.6204 77.7322 28.5033 77.2414 28.4081L77.089 29.1935C77.5579 29.2844 78.0308 29.3965 78.5078 29.5298L78.7231 28.7593ZM77.2425 28.4083C76.7604 28.3133 76.295 28.24 75.8466 28.1885L75.7554 28.9833C76.1806 29.0321 76.6248 29.102 77.0879 29.1932L77.2425 28.4083ZM75.8538 28.1894C75.4151 28.131 74.9967 28.0905 74.5986 28.0684L74.5542 28.8672C74.9295 28.888 75.3274 28.9263 75.7481 28.9824L75.8538 28.1894ZM74.599 28.0684C74.2142 28.0466 73.8733 28.0355 73.5773 28.0355V28.8355C73.8543 28.8355 74.1795 28.8459 74.5538 28.8671L74.599 28.0684ZM73.5773 28.0355C72.9679 28.0355 72.4453 28.0757 72.0165 28.1615L72.1734 28.9459C72.5323 28.8742 72.998 28.8355 73.5773 28.8355V28.0355ZM72.0165 28.1615C71.5981 28.2452 71.2358 28.3636 70.9437 28.5268L71.334 29.2252C71.5289 29.1162 71.804 29.0198 72.1734 28.9459L72.0165 28.1615ZM70.9517 28.5225C70.6629 28.6754 70.423 28.8769 70.2742 29.1424L70.9722 29.5333C71.024 29.4408 71.1278 29.3344 71.326 29.2295L70.9517 28.5225ZM70.2742 29.1424C70.1427 29.3774 70.0729 29.6305 70.0729 29.8965H70.8729C70.8729 29.7758 70.9033 29.6564 70.9722 29.5333L70.2742 29.1424ZM87.1061 21.3242V20.9242H86.7061V21.3242H87.1061ZM90.2857 21.3242H90.6857V20.9242H90.2857V21.3242ZM90.2857 23.1504H89.8857V23.9471L90.5247 23.4712L90.2857 23.1504ZM94.8404 20.9268L95.2213 20.8045L95.1058 20.4447L94.74 20.5396L94.8404 20.9268ZM95.775 23.8379L95.8146 24.2359L96.3072 24.187L96.1559 23.7156L95.775 23.8379ZM92.5416 24.665L92.708 25.0288L92.7092 25.0282L92.5416 24.665ZM90.2857 26.459L89.9657 26.219L89.8857 26.3257V26.459H90.2857ZM90.2857 34V34.4H90.6857V34H90.2857ZM87.1061 34H86.7061V34.4H87.1061V34ZM87.1061 21.7242H90.2857V20.9242H87.1061V21.7242ZM89.8857 21.3242V23.1504H90.6857V21.3242H89.8857ZM90.5247 23.4712C91.2066 22.9632 91.9264 22.5251 92.6843 22.1566L92.3345 21.4371C91.5312 21.8277 90.7685 22.292 90.0468 22.8296L90.5247 23.4712ZM92.6843 22.1566C93.4431 21.7877 94.1952 21.5073 94.9408 21.314L94.74 20.5396C93.9388 20.7473 93.1369 21.047 92.3345 21.4371L92.6843 22.1566ZM94.4596 21.049L95.3941 23.9602L96.1559 23.7156L95.2213 20.8045L94.4596 21.049ZM95.7354 23.4399C94.4751 23.5651 93.3526 23.8502 92.374 24.3019L92.7092 25.0282C93.5926 24.6205 94.6257 24.3541 95.8146 24.2359L95.7354 23.4399ZM92.3752 24.3013C91.3939 24.7501 90.5879 25.3894 89.9657 26.219L90.6057 26.699C91.1437 25.9817 91.8417 25.425 92.708 25.0288L92.3752 24.3013ZM89.8857 26.459V34H90.6857V26.459H89.8857ZM90.2857 33.6H87.1061V34.4H90.2857V33.6ZM87.5061 34V21.3242H86.7061V34H87.5061ZM98.8408 24.9873L99.203 25.1572L99.2035 25.1559L98.8408 24.9873ZM100.409 22.9033L100.67 23.2066L100.67 23.2063L100.409 22.9033ZM102.794 21.5713L102.921 21.9505L102.923 21.9499L102.794 21.5713ZM107.145 21.1846L107.093 21.5813L107.094 21.5814L107.145 21.1846ZM108.434 21.4209L108.338 21.8094L108.34 21.8097L108.434 21.4209ZM109.594 21.7861L109.445 22.1576L109.454 22.161L109.594 21.7861ZM110.561 22.2373L110.357 22.5819L110.961 22.9376V22.2373H110.561ZM110.561 16.1787V15.7787H110.161V16.1787H110.561ZM113.74 16.1787H114.14V15.7787H113.74V16.1787ZM113.74 34V34.4H114.14V34H113.74ZM110.561 34H110.161V34.4H110.561V34ZM110.561 32.8076H110.961V32.0442L110.333 32.4787L110.561 32.8076ZM108.348 33.8066L108.234 33.423L108.348 33.8066ZM106.983 34.1074L106.923 33.7119L106.917 33.713L106.983 34.1074ZM102.633 33.7529L102.5 34.1302L102.501 34.1306L102.633 33.7529ZM100.323 32.4209L100.057 32.7199L100.323 32.4209ZM98.8086 30.3691L98.4433 30.5322L98.4451 30.5361L98.8086 30.3691ZM101.913 29.1553L101.548 29.3177L101.55 29.3225L101.913 29.1553ZM102.794 30.3477L102.525 30.6442L102.531 30.6494L102.794 30.3477ZM104.18 31.1533L104.04 31.5281L104.046 31.5302L104.18 31.1533ZM107.295 31.3252L107.367 31.7187L107.373 31.7174L107.295 31.3252ZM108.53 30.9707L108.39 30.5962L108.388 30.597L108.53 30.9707ZM109.647 30.4229L109.439 30.0817L109.435 30.0837L109.647 30.4229ZM110.561 29.7031L110.847 29.9821L110.961 29.8656V29.7031H110.561ZM110.561 25.3096H110.961V25.1173L110.81 24.9972L110.561 25.3096ZM108.444 24.2139L108.327 24.5962L108.444 24.2139ZM107.316 23.9668L107.257 24.3624L107.264 24.3634L107.316 23.9668ZM104.255 24.1816L104.384 24.5602L104.387 24.5592L104.255 24.1816ZM102.815 24.9873L102.552 24.6859L102.55 24.6883L102.815 24.9873ZM98.6715 27.7158C98.6715 26.7571 98.8514 25.9067 99.203 25.1572L98.4787 24.8174C98.0711 25.6864 97.8715 26.655 97.8715 27.7158H98.6715ZM99.2035 25.1559C99.5597 24.3898 100.048 23.7414 100.67 23.2066L100.148 22.6001C99.4381 23.211 98.881 23.952 98.4781 24.8187L99.2035 25.1559ZM100.67 23.2063C101.301 22.6629 102.049 22.2434 102.921 21.9505L102.667 21.1921C101.705 21.5151 100.864 21.9835 100.148 22.6003L100.67 23.2063ZM102.923 21.9499C103.801 21.6503 104.756 21.4986 105.791 21.4986V20.6986C104.677 20.6986 103.634 20.8621 102.665 21.1927L102.923 21.9499ZM105.791 21.4986C106.233 21.4986 106.667 21.5262 107.093 21.5813L107.196 20.7879C106.734 20.7283 106.266 20.6986 105.791 20.6986V21.4986ZM107.094 21.5814C107.531 21.6369 107.946 21.713 108.338 21.8094L108.529 21.0324C108.105 20.9283 107.66 20.8468 107.195 20.7878L107.094 21.5814ZM108.34 21.8097C108.738 21.906 109.107 22.0221 109.445 22.1575L109.742 21.4147C109.365 21.2637 108.959 21.1363 108.527 21.0321L108.34 21.8097ZM109.454 22.161C109.802 22.2904 110.102 22.4312 110.357 22.5819L110.764 21.8928C110.461 21.714 110.116 21.554 109.733 21.4113L109.454 22.161ZM110.961 22.2373V16.1787H110.161V22.2373H110.961ZM110.561 16.5787H113.74V15.7787H110.561V16.5787ZM113.34 16.1787V34H114.14V16.1787H113.34ZM113.74 33.6H110.561V34.4H113.74V33.6ZM110.961 34V32.8076H110.161V34H110.961ZM110.333 32.4787C110.077 32.6557 109.77 32.827 109.407 32.9911L109.737 33.7199C110.134 33.5402 110.485 33.3462 110.788 33.1365L110.333 32.4787ZM109.407 32.9911C109.046 33.1547 108.655 33.2988 108.234 33.423L108.461 34.1903C108.914 34.0566 109.339 33.9 109.737 33.7199L109.407 32.9911ZM108.234 33.423C107.816 33.5465 107.379 33.6429 106.923 33.7119L107.043 34.5029C107.533 34.4287 108.006 34.3246 108.461 34.1903L108.234 33.423ZM106.917 33.713C106.473 33.7882 106.033 33.8256 105.598 33.8256V34.6256C106.079 34.6256 106.563 34.5842 107.05 34.5018L106.917 33.713ZM105.598 33.8256C104.563 33.8256 103.62 33.6739 102.765 33.3753L102.501 34.1306C103.451 34.4622 104.484 34.6256 105.598 34.6256V33.8256ZM102.766 33.3756C101.914 33.076 101.191 32.657 100.589 32.1219L100.057 32.7199C100.745 33.3306 101.561 33.7996 102.5 34.1302L102.766 33.3756ZM100.589 32.1219C99.9864 31.5863 99.5145 30.9475 99.1721 30.2021L98.4451 30.5361C98.8331 31.3806 99.371 32.1096 100.057 32.7199L100.589 32.1219ZM99.1738 30.2061C98.8409 29.4603 98.6715 28.6321 98.6715 27.7158H97.8715C97.8715 28.7331 98.0601 29.6738 98.4433 30.5322L99.1738 30.2061ZM101.212 27.7158C101.212 28.2785 101.324 28.8139 101.548 29.3177L102.279 28.9928C102.102 28.5943 102.012 28.17 102.012 27.7158H101.212ZM101.55 29.3225C101.781 29.8243 102.107 30.2653 102.525 30.6441L103.062 30.0512C102.722 29.7425 102.461 29.3886 102.276 28.988L101.55 29.3225ZM102.531 30.6494C102.958 31.021 103.463 31.3127 104.04 31.5281L104.32 30.7786C103.822 30.5929 103.403 30.3475 103.057 30.0459L102.531 30.6494ZM104.046 31.5302C104.64 31.7412 105.294 31.8434 106.006 31.8434V31.0434C105.371 31.0434 104.808 30.9522 104.314 30.7764L104.046 31.5302ZM106.006 31.8434C106.46 31.8434 106.914 31.8017 107.367 31.7186L107.223 30.9318C106.817 31.0062 106.411 31.0434 106.006 31.0434V31.8434ZM107.373 31.7174C107.824 31.6273 108.257 31.5031 108.673 31.3444L108.388 30.597C108.015 30.7391 107.625 30.8512 107.216 30.933L107.373 31.7174ZM108.671 31.3452C109.095 31.186 109.492 30.9918 109.859 30.7621L109.435 30.0837C109.116 30.2836 108.767 30.4546 108.39 30.5962L108.671 31.3452ZM109.856 30.764C110.233 30.5337 110.564 30.2735 110.847 29.9821L110.274 29.4242C110.042 29.6627 109.764 29.8823 109.439 30.0817L109.856 30.764ZM110.961 29.7031V25.3096H110.161V29.7031H110.961ZM110.81 24.9972C110.467 24.7224 110.103 24.4885 109.719 24.2965L109.361 25.0121C109.693 25.1781 110.01 25.3812 110.311 25.6219L110.81 24.9972ZM109.719 24.2965C109.342 24.1079 108.956 23.9528 108.562 23.8316L108.327 24.5962C108.677 24.7041 109.022 24.8426 109.361 25.0121L109.719 24.2965ZM108.562 23.8316C108.169 23.7105 107.771 23.6233 107.369 23.5702L107.264 24.3634C107.621 24.4105 107.975 24.488 108.327 24.5962L108.562 23.8316ZM107.376 23.5713C106.978 23.5112 106.589 23.4809 106.21 23.4809V24.2809C106.547 24.2809 106.896 24.3078 107.257 24.3623L107.376 23.5713ZM106.21 23.4809C105.443 23.4809 104.746 23.586 104.123 23.8041L104.387 24.5592C104.91 24.3762 105.516 24.2809 106.21 24.2809V23.4809ZM104.126 23.8031C103.518 24.0109 102.991 24.3035 102.552 24.6859L103.078 25.2887C103.428 24.9836 103.861 24.7391 104.384 24.5601L104.126 23.8031ZM102.55 24.6883C102.121 25.0692 101.79 25.52 101.559 26.0382L102.289 26.3641C102.473 25.9513 102.736 25.5929 103.081 25.2863L102.55 24.6883ZM101.559 26.0382C101.326 26.5584 101.212 27.1193 101.212 27.7158H102.012C102.012 27.2238 102.106 26.7749 102.289 26.3641L101.559 26.0382ZM119.137 17.21V16.81H118.737V17.21H119.137ZM134.155 17.21H134.555V16.81H134.155V17.21ZM134.155 20.1963V20.5963H134.555V20.1963H134.155ZM122.542 20.1963V19.7963H122.142V20.1963H122.542ZM122.542 24.5898H122.142V24.9898H122.542V24.5898ZM132.404 24.5898H132.804V24.1898H132.404V24.5898ZM132.404 27.3936V27.7936H132.804V27.3936H132.404ZM122.542 27.3936V26.9936H122.142V27.3936H122.542ZM122.542 34V34.4H122.942V34H122.542ZM119.137 34H118.737V34.4H119.137V34ZM119.137 17.61H134.155V16.81H119.137V17.61ZM133.755 17.21V20.1963H134.555V17.21H133.755ZM134.155 19.7963H122.542V20.5963H134.155V19.7963ZM122.142 20.1963V24.5898H122.942V20.1963H122.142ZM122.542 24.9898H132.404V24.1898H122.542V24.9898ZM132.004 24.5898V27.3936H132.804V24.5898H132.004ZM132.404 26.9936H122.542V27.7936H132.404V26.9936ZM122.142 27.3936V34H122.942V27.3936H122.142ZM122.542 33.6H119.137V34.4H122.542V33.6ZM119.537 34V17.21H118.737V34H119.537ZM137.929 25.1055L137.567 24.9358L137.566 24.9385L137.929 25.1055ZM139.509 23.0215L139.247 22.7189L139.245 22.7203L139.509 23.0215ZM141.99 21.6143L141.857 21.2371L141.856 21.2374L141.99 21.6143ZM148.532 21.6143L148.398 21.9911L148.399 21.9915L148.532 21.6143ZM151.013 23.0215L150.75 23.3227L150.752 23.3241L151.013 23.0215ZM152.593 25.1055L152.229 25.2725L152.23 25.2752L152.593 25.1055ZM152.593 30.2188L152.23 30.0491L152.229 30.0517L152.593 30.2188ZM151.013 32.3027L150.752 32.0001L150.75 32.0015L151.013 32.3027ZM148.532 33.71L148.399 33.3328L148.398 33.3331L148.532 33.71ZM141.99 33.71L141.856 34.0868L141.857 34.0872L141.99 33.71ZM139.509 32.3027L139.245 32.604L139.247 32.6053L139.509 32.3027ZM137.929 30.2188L137.566 30.3858L137.567 30.3884L137.929 30.2188ZM141.023 29.1123L140.657 29.2727L140.66 29.2796L141.023 29.1123ZM141.915 30.3154L141.646 30.6117L141.652 30.6168L141.915 30.3154ZM143.344 31.1426L143.204 31.5175L143.21 31.5196L143.344 31.1426ZM147.179 31.1426L147.314 31.5191L147.316 31.5181L147.179 31.1426ZM148.607 30.3154L148.873 30.6144L148.873 30.6141L148.607 30.3154ZM149.499 29.1123L149.134 28.9472L149.133 28.9498L149.499 29.1123ZM149.499 26.2119L149.132 26.3723L149.134 26.377L149.499 26.2119ZM148.607 25.0088L148.338 25.3051L148.344 25.3102L148.607 25.0088ZM147.179 24.1816L147.039 24.5566L147.045 24.5587L147.179 24.1816ZM143.344 24.1816L143.479 24.5581L143.481 24.5571L143.344 24.1816ZM141.915 25.0088L142.181 25.3078L142.181 25.3075L141.915 25.0088ZM141.023 26.2119L140.659 26.0468L140.657 26.0516L141.023 26.2119ZM137.782 27.6621C137.782 26.8079 137.953 26.0129 138.293 25.2725L137.566 24.9385C137.176 25.7879 136.982 26.6973 136.982 27.6621H137.782ZM138.292 25.2752C138.64 24.532 139.132 23.8817 139.772 23.3227L139.245 22.7203C138.525 23.3501 137.964 24.0891 137.567 24.9358L138.292 25.2752ZM139.77 23.3241C140.416 22.7661 141.198 22.3204 142.124 21.9911L141.856 21.2374C140.848 21.5956 139.977 22.0881 139.247 22.7189L139.77 23.3241ZM142.123 21.9915C143.048 21.6651 144.094 21.4986 145.266 21.4986V20.6986C144.018 20.6986 142.88 20.8759 141.857 21.2371L142.123 21.9915ZM145.266 21.4986C146.439 21.4986 147.481 21.6652 148.398 21.9911L148.666 21.2374C147.649 20.8759 146.514 20.6986 145.266 20.6986V21.4986ZM148.399 21.9915C149.332 22.3207 150.113 22.7661 150.75 23.3227L151.277 22.7203C150.553 22.0881 149.68 21.5953 148.665 21.2371L148.399 21.9915ZM150.752 23.3241C151.398 23.8826 151.889 24.5315 152.229 25.2725L152.956 24.9385C152.566 24.0896 152.004 23.3492 151.275 22.7189L150.752 23.3241ZM152.23 25.2752C152.577 26.015 152.751 26.8091 152.751 27.6621H153.551C153.551 26.6961 153.353 25.7857 152.955 24.9358L152.23 25.2752ZM152.751 27.6621C152.751 28.5151 152.577 29.3092 152.23 30.0491L152.955 30.3884C153.353 29.5385 153.551 28.6281 153.551 27.6621H152.751ZM152.229 30.0517C151.889 30.7927 151.398 31.4417 150.752 32.0001L151.275 32.6053C152.004 31.975 152.566 31.2347 152.956 30.3858L152.229 30.0517ZM150.75 32.0015C150.113 32.5582 149.332 33.0035 148.399 33.3328L148.665 34.0872C149.68 33.7289 150.553 33.2361 151.277 32.604L150.75 32.0015ZM148.398 33.3331C147.481 33.6591 146.439 33.8256 145.266 33.8256V34.6256C146.514 34.6256 147.649 34.4484 148.666 34.0868L148.398 33.3331ZM145.266 33.8256C144.094 33.8256 143.048 33.6591 142.123 33.3328L141.857 34.0872C142.88 34.4483 144.018 34.6256 145.266 34.6256V33.8256ZM142.124 33.3331C141.198 33.0038 140.416 32.5582 139.77 32.0001L139.247 32.6053C139.977 33.2361 140.848 33.7286 141.856 34.0868L142.124 33.3331ZM139.772 32.0015C139.132 31.4425 138.64 30.7923 138.292 30.0491L137.567 30.3884C137.964 31.2351 138.525 31.9741 139.245 32.604L139.772 32.0015ZM138.293 30.0517C137.953 29.3113 137.782 28.5163 137.782 27.6621H136.982C136.982 28.6269 137.176 29.5364 137.566 30.3858L138.293 30.0517ZM140.322 27.6621C140.322 28.2248 140.434 28.7629 140.657 29.2726L141.39 28.952C141.212 28.545 141.122 28.1163 141.122 27.6621H140.322ZM140.66 29.2796C140.891 29.7821 141.222 30.2264 141.646 30.6117L142.184 30.0192C141.835 29.7026 141.571 29.3448 141.387 28.945L140.66 29.2796ZM141.652 30.6168C142.087 30.9965 142.607 31.2953 143.204 31.5175L143.483 30.7677C142.963 30.5745 142.531 30.3219 142.178 30.0141L141.652 30.6168ZM143.21 31.5196C143.826 31.7379 144.513 31.8434 145.266 31.8434V31.0434C144.587 31.0434 143.993 30.9483 143.477 30.7656L143.21 31.5196ZM145.266 31.8434C146.019 31.8434 146.704 31.738 147.314 31.5191L147.043 30.7661C146.536 30.9482 145.946 31.0434 145.266 31.0434V31.8434ZM147.316 31.5181C147.922 31.2959 148.443 30.9965 148.873 30.6144L148.341 30.0165C147.998 30.3219 147.567 30.5739 147.041 30.7671L147.316 31.5181ZM148.873 30.6141C149.307 30.228 149.639 29.7814 149.864 29.2748L149.133 28.9498C148.957 29.3456 148.696 29.701 148.341 30.0168L148.873 30.6141ZM149.863 29.2774C150.095 28.7666 150.21 28.2269 150.21 27.6621H149.41C149.41 28.1142 149.318 28.5413 149.134 28.9472L149.863 29.2774ZM150.21 27.6621C150.21 27.0973 150.095 26.5576 149.863 26.0468L149.134 26.377C149.318 26.7829 149.41 27.21 149.41 27.6621H150.21ZM149.865 26.0516C149.64 25.5367 149.307 25.0882 148.87 24.7074L148.344 25.3102C148.696 25.6169 148.957 25.9704 149.132 26.3722L149.865 26.0516ZM148.876 24.7126C148.445 24.3211 147.92 24.0202 147.312 23.8046L147.045 24.5587C147.568 24.7441 147.996 24.9946 148.338 25.305L148.876 24.7126ZM147.318 23.8067C146.707 23.5795 146.021 23.4701 145.266 23.4701V24.2701C145.944 24.2701 146.533 24.3684 147.039 24.5566L147.318 23.8067ZM145.266 23.4701C144.512 23.4701 143.823 23.5795 143.206 23.8061L143.481 24.5571C143.996 24.3684 144.589 24.2701 145.266 24.2701V23.4701ZM143.208 23.8052C142.608 24.0208 142.085 24.3211 141.649 24.7101L142.181 25.3075C142.532 24.9946 142.962 24.7435 143.479 24.5581L143.208 23.8052ZM141.649 24.7098C141.222 25.0897 140.89 25.536 140.659 26.0468L141.388 26.377C141.571 25.9712 141.835 25.6154 142.181 25.3078L141.649 24.7098ZM140.657 26.0516C140.434 26.5613 140.322 27.0994 140.322 27.6621H141.122C141.122 27.2079 141.212 26.7792 141.39 26.3722L140.657 26.0516ZM157.463 21.3242V20.9242H157.063V21.3242H157.463ZM160.643 21.3242H161.043V20.9242H160.643V21.3242ZM160.643 23.1504H160.243V23.9471L160.882 23.4712L160.643 23.1504ZM165.197 20.9268L165.578 20.8045L165.463 20.4447L165.097 20.5396L165.197 20.9268ZM166.132 23.8379L166.172 24.2359L166.664 24.187L166.513 23.7156L166.132 23.8379ZM162.899 24.665L163.065 25.0288L163.066 25.0282L162.899 24.665ZM160.643 26.459L160.323 26.219L160.243 26.3257V26.459H160.643ZM160.643 34V34.4H161.043V34H160.643ZM157.463 34H157.063V34.4H157.463V34ZM157.463 21.7242H160.643V20.9242H157.463V21.7242ZM160.243 21.3242V23.1504H161.043V21.3242H160.243ZM160.882 23.4712C161.564 22.9632 162.283 22.5251 163.041 22.1566L162.691 21.4371C161.888 21.8277 161.126 22.292 160.404 22.8296L160.882 23.4712ZM163.041 22.1566C163.8 21.7877 164.552 21.5073 165.298 21.314L165.097 20.5396C164.296 20.7473 163.494 21.047 162.691 21.4371L163.041 22.1566ZM164.817 21.049L165.751 23.9602L166.513 23.7156L165.578 20.8045L164.817 21.049ZM166.092 23.4399C164.832 23.5651 163.71 23.8502 162.731 24.3019L163.066 25.0282C163.95 24.6205 164.983 24.3541 166.172 24.2359L166.092 23.4399ZM162.732 24.3013C161.751 24.7501 160.945 25.3894 160.323 26.219L160.963 26.699C161.501 25.9817 162.199 25.425 163.065 25.0288L162.732 24.3013ZM160.243 26.459V34H161.043V26.459H160.243ZM160.643 33.6H157.463V34.4H160.643V33.6ZM157.863 34V21.3242H157.063V34H157.863ZM169.692 21.3242V20.9242H169.292V21.3242H169.692ZM172.872 21.3242H173.272V20.9242H172.872V21.3242ZM172.872 22.3984H172.472V23.1126L173.081 22.7395L172.872 22.3984ZM175.192 21.3887L175.288 21.777L175.291 21.7763L175.192 21.3887ZM182.368 23.043L182.074 23.3143L182.322 23.5829L182.612 23.36L182.368 23.043ZM183.743 22.1406L183.933 22.4927L183.937 22.4903L183.743 22.1406ZM185.096 21.5391L185.223 21.9186L185.228 21.9167L185.096 21.5391ZM186.471 21.2061L186.526 21.6023L186.532 21.6014L186.471 21.2061ZM190.736 21.5283L190.608 21.9072L190.61 21.9081L190.736 21.5283ZM192.895 22.7852L192.621 23.0766L192.623 23.0783L192.895 22.7852ZM194.281 24.8799L193.907 25.0235L193.909 25.0273L194.281 24.8799ZM194.775 34V34.4H195.175V34H194.775ZM191.606 34H191.206V34.4H191.606V34ZM191.305 26.4268L190.928 26.5591L190.93 26.565L191.305 26.4268ZM190.478 25.041L190.184 25.3126L190.19 25.3183L190.478 25.041ZM189.211 24.1816L189.058 24.5516L189.065 24.5541L189.211 24.1816ZM186.611 23.9775L186.678 24.372L186.686 24.3704L186.611 23.9775ZM185.623 24.2568L185.474 23.8854L185.471 23.8866L185.623 24.2568ZM184.731 24.751L184.959 25.0799L184.964 25.0759L184.731 24.751ZM184.001 25.4385L183.686 25.1917L183.601 25.3004V25.4385H184.001ZM184.001 34V34.4H184.401V34H184.001ZM180.832 34H180.432V34.4H180.832V34ZM180.531 26.4268L180.153 26.5591L180.156 26.565L180.531 26.4268ZM179.704 25.041L179.41 25.3126L179.415 25.3183L179.704 25.041ZM178.425 24.1816L178.275 24.5523L178.281 24.5548L178.425 24.1816ZM175.686 23.999L175.763 24.3916L175.769 24.3904L175.686 23.999ZM174.623 24.3105L174.475 23.9386L174.473 23.9397L174.623 24.3105ZM173.667 24.8047L173.45 24.4682L173.447 24.4706L173.667 24.8047ZM172.872 25.46L172.585 25.1814L172.472 25.2978V25.46H172.872ZM172.872 34V34.4H173.272V34H172.872ZM169.692 34H169.292V34.4H169.692V34ZM169.692 21.7242H172.872V20.9242H169.692V21.7242ZM172.472 21.3242V22.3984H173.272V21.3242H172.472ZM173.081 22.7395C173.847 22.2698 174.583 21.9515 175.288 21.7769L175.096 21.0004C174.297 21.1982 173.486 21.5532 172.663 22.0574L173.081 22.7395ZM175.291 21.7763C176.02 21.5905 176.728 21.4986 177.416 21.4986V20.6986C176.656 20.6986 175.882 20.8001 175.093 21.001L175.291 21.7763ZM177.416 21.4986C178.382 21.4986 179.261 21.6528 180.055 21.9558L180.34 21.2083C179.445 20.8668 178.468 20.6986 177.416 20.6986V21.4986ZM180.055 21.9558C180.844 22.2565 181.515 22.7089 182.074 23.3143L182.662 22.7717C182.017 22.0737 181.242 21.5521 180.34 21.2083L180.055 21.9558ZM182.612 23.36C183.063 23.0132 183.503 22.7246 183.933 22.4926L183.553 21.7886C183.08 22.0436 182.604 22.3566 182.124 22.7259L182.612 23.36ZM183.937 22.4903C184.368 22.2506 184.797 22.0605 185.223 21.9185L184.97 21.1596C184.493 21.3184 184.019 21.5293 183.549 21.791L183.937 22.4903ZM185.228 21.9167C185.655 21.7677 186.087 21.663 186.526 21.6023L186.416 20.8098C185.924 20.878 185.44 20.9953 184.964 21.1614L185.228 21.9167ZM186.532 21.6014C186.977 21.533 187.436 21.4986 187.911 21.4986V20.6986C187.397 20.6986 186.897 20.7358 186.41 20.8107L186.532 21.6014ZM187.911 21.4986C188.912 21.4986 189.81 21.6368 190.608 21.9071L190.864 21.1495C189.972 20.8469 188.986 20.6986 187.911 20.6986V21.4986ZM190.61 21.9081C191.405 22.1708 192.073 22.5615 192.621 23.0766L193.169 22.4937C192.528 21.8917 191.757 21.4444 190.861 21.1485L190.61 21.9081ZM192.623 23.0783C193.176 23.5916 193.605 24.2371 193.908 25.0235L194.654 24.7363C194.312 23.8469 193.818 23.0959 193.167 22.492L192.623 23.0783ZM193.909 25.0273C194.216 25.8018 194.375 26.7132 194.375 27.7695H195.175C195.175 26.6344 195.004 25.6194 194.653 24.7324L193.909 25.0273ZM194.375 27.7695V34H195.175V27.7695H194.375ZM194.775 33.6H191.606V34.4H194.775V33.6ZM192.006 34V28.2852H191.206V34H192.006ZM192.006 28.2852C192.006 27.5524 191.9 26.8848 191.681 26.2885L190.93 26.565C191.111 27.0572 191.206 27.6286 191.206 28.2852H192.006ZM191.683 26.2944C191.473 25.6959 191.169 25.1826 190.766 24.7638L190.19 25.3183C190.503 25.6442 190.751 26.0547 190.928 26.5591L191.683 26.2944ZM190.772 24.7695C190.379 24.3443 189.905 24.0239 189.356 23.8091L189.065 24.5541C189.504 24.7261 189.876 24.9786 190.184 25.3126L190.772 24.7695ZM189.363 23.8118C188.822 23.5892 188.233 23.4809 187.599 23.4809V24.2809C188.14 24.2809 188.625 24.3731 189.058 24.5515L189.363 23.8118ZM187.599 23.4809C187.25 23.4809 186.896 23.5158 186.536 23.5847L186.686 24.3704C187 24.3104 187.304 24.2809 187.599 24.2809V23.4809ZM186.544 23.5832C186.179 23.6453 185.822 23.7462 185.474 23.8854L185.771 24.6282C186.068 24.5096 186.37 24.4243 186.678 24.3719L186.544 23.5832ZM185.471 23.8866C185.127 24.0275 184.802 24.2075 184.498 24.426L184.964 25.0759C185.218 24.8934 185.488 24.744 185.774 24.6271L185.471 23.8866ZM184.503 24.4221C184.191 24.6381 183.918 24.8949 183.686 25.1917L184.315 25.6852C184.498 25.4521 184.712 25.2506 184.959 25.0799L184.503 24.4221ZM183.601 25.4385V34H184.401V25.4385H183.601ZM184.001 33.6H180.832V34.4H184.001V33.6ZM181.232 34V28.2852H180.432V34H181.232ZM181.232 28.2852C181.232 27.5524 181.126 26.8848 180.906 26.2885L180.156 26.565C180.337 27.0572 180.432 27.6286 180.432 28.2852H181.232ZM180.908 26.2944C180.698 25.6959 180.395 25.1826 179.992 24.7638L179.415 25.3183C179.729 25.6442 179.977 26.0547 180.153 26.5591L180.908 26.2944ZM179.997 24.7695C179.603 24.3432 179.125 24.0229 178.569 23.8084L178.281 24.5548C178.728 24.7271 179.102 24.9797 179.41 25.3126L179.997 24.7695ZM178.576 23.811C178.029 23.589 177.433 23.4809 176.793 23.4809V24.2809C177.341 24.2809 177.834 24.3733 178.275 24.5523L178.576 23.811ZM176.793 23.4809C176.398 23.4809 176.002 23.5234 175.603 23.6077L175.769 24.3904C176.115 24.3171 176.456 24.2809 176.793 24.2809V23.4809ZM175.609 23.6065C175.22 23.6828 174.842 23.7935 174.475 23.9386L174.77 24.6825C175.091 24.5555 175.422 24.4585 175.763 24.3915L175.609 23.6065ZM174.473 23.9397C174.113 24.085 173.772 24.2611 173.45 24.4682L173.883 25.1412C174.162 24.9615 174.459 24.8082 174.773 24.6814L174.473 23.9397ZM173.447 24.4706C173.13 24.6794 172.842 24.9163 172.585 25.1814L173.159 25.7386C173.374 25.5167 173.616 25.3167 173.887 25.1388L173.447 24.4706ZM172.472 25.46V34H173.272V25.46H172.472ZM172.872 33.6H169.692V34.4H172.872V33.6ZM170.092 34V21.3242H169.292V34H170.092Z" fill="#0F94B1" fill-opacity="0.8"/>
<defs>
<linearGradient id="paint0_linear_61_2" x1="105" y1="25" x2="4" y2="46" gradientUnits="userSpaceOnUse">
<stop stop-color="#1F2F32"/>
<stop offset="0.0001" stop-color="#010F12"/>
<stop offset="1" stop-color="#121313"/>
</linearGradient>
</defs>
</svg>
